# xmcd
# 
# Track frame offsets:
#     150
#     14970
#     61315
#     66795
#     104730
#     129683
#     142695
#     149678
#     184670
#     192563
#     202243
#     219263
#     238228
# 
# Disc length: 3299
# 
# Revision: 1
# Processed by: cddbd v1.5.2PL0 Copyright (c) Steve Scherf et al.
# Submitted via: BonkEnc v1.0.8
# 
DISCID=da0ce10d
DTITLE=Marilyn Mazur - Circular Chant
DYEAR=1994
DGENRE=Contemporary Jazz
TTITLE0=Circular Chant
TTITLE1=Aorta
TTITLE2=Celldance
TTITLE3=Louise
TTITLE4=Pulsens Sang
TTITLE5=Gong Piece 1
TTITLE6=Reeds Duo
TTITLE7=Amulu
TTITLE8=Chordal Piece
TTITLE9=Gong Piece 2
TTITLE10=Geen Bones
TTITLE11=Balophone Tune
TTITLE12=Circular Chant 2
EXTD=YEAR: 1994
EXTT0=
EXTT1=
EXTT2=
EXTT3=
EXTT4=
EXTT5=
EXTT6=
EXTT7=
EXTT8=
EXTT9=
EXTT10=
EXTT11=
EXTT12=
PLAYORDER=
